<?xml version="1.0" encoding="UTF-8"?>
<svg id="Layer_1" xmlns="http://www.w3.org/2000/svg" version="1.1" viewBox="0 0 841.89 595.28">
  <!-- Generator: Adobe Illustrator 29.8.3, SVG Export Plug-In . SVG Version: 2.1.1 Build 3)  -->
  <defs>
    <style>
      .st0 {
        fill: none;
        stroke: #042d44;
        stroke-miterlimit: 10;
        stroke-width: 3px;
      }

      .st1 {
        font-family: Krungthep, Krungthep;
        font-size: 50.49px;
      }

      .st1, .st2 {
        fill: #042d44;
      }

      .st3 {
        fill: #fff;
      }
    </style>
  </defs>
  <g>
    <polygon class="st2" points="490.86 233.66 507.8 247.12 507.8 342.19 491.73 348.27 490.86 233.66"/>
    <path class="st2" d="M467.86,182.44s2.17,32.99,16.06,46.02l.87,105.06s0,26.05-27.78,28.65v18.67s-1.74,12.16-10.42,13.89l-32.56,11.72v-31.69l-46.02,13.02s-3.47-3.04,6.95-6.95c0,0,14.33-3.47,13.02-28.65l-1.74-22.57,16.93-6.08,1.3,37.33,9.12-3.91-.43-26.48s1.3-14.76,15.63-16.06l27.35-9.98.43,39.94s15.63,6.08,11.29-37.33v-124.59Z"/>
    <path class="st3" d="M440.07,317.01l.43,32.12-9.55,3.04-.87-22.57s1.74-10.85,9.98-12.59Z"/>
    <path class="st3" d="M430.52,393.42l-.43-23.44,10.85-3.47v13.89s-.43,12.16-10.42,13.02Z"/>
    <path class="st2" d="M454.83,214.56l1.3,64.25s-.43,13.02-16.5,18.67l-57.3,20.84-.87-27.78s-1.3-12.59,26.48-18.67l.87,7.38s-14.76,2.6-10.42,25.18l29.95-10.42s13.89-3.47,11.29-26.48l-26.05,9.98-.43-39.94s2.17-13.89,41.68-23.01Z"/>
    <path class="st3" d="M439.64,226.72v35.16l-9.98,4.34s-5.21-31.69,9.98-39.5Z"/>
    <polygon class="st2" points="428.79 201.54 437.47 211.09 447.02 201.97 436.6 191.55 428.79 201.54"/>
    <polyline class="st0" points="509.15 366.22 509.4 397.48 464.22 396.73"/>
    <polyline class="st0" points="412.78 189.28 381.52 189.54 381.96 269.37"/>
  </g>
  <text class="st1" transform="translate(355.61 451.92)"><tspan x="0" y="0">HADAF</tspan></text>
</svg>